<?xml version="1.0" encoding="UTF-8"?>
<svg version="1.1" xmlns="http://www.w3.org/2000/svg" width="128" height="128">
<path d="M0 0 C1.32759338 -0.01248528 1.32759338 -0.01248528 2.68200684 -0.02522278 C5.60868734 -0.04932202 8.53514485 -0.05809561 11.46191406 -0.06469727 C13.4996955 -0.07366493 15.53747626 -0.0827868 17.57525635 -0.09205627 C21.84901529 -0.10854952 26.12269588 -0.11624678 30.39648438 -0.11914062 C35.86190798 -0.12451918 41.32659065 -0.16217634 46.79180527 -0.20788479 C51.00240742 -0.23769134 55.21283211 -0.244865 59.42353058 -0.24586678 C61.43769976 -0.25006331 63.45186974 -0.26247476 65.46593475 -0.28338432 C68.2903364 -0.31036792 71.11303346 -0.30545214 73.9375 -0.29296875 C74.76272156 -0.30780304 75.58794312 -0.32263733 76.43817139 -0.33792114 C82.50454817 -0.26191897 86.49576251 1.52481085 91.22753906 5.30639648 C96.43390022 10.92378616 97.52761703 15.1455356 97.53393555 22.71166992 C97.54225906 23.5577179 97.55058258 24.40376587 97.55915833 25.27545166 C97.58325138 28.0722718 97.59203044 30.86885857 97.59863281 33.66577148 C97.60760105 35.61387196 97.61672294 37.56197173 97.62599182 39.5100708 C97.64248345 43.59551669 97.65018201 47.68088062 97.65307617 51.76635742 C97.65845411 56.98965915 97.69610921 62.21218537 97.74182034 67.4352684 C97.77163482 71.46057919 97.77880072 75.48570444 97.77980232 79.51111603 C97.78399741 81.43597203 97.79640305 83.36082895 97.81731987 85.28557587 C97.84431999 87.98547 97.83938317 90.68358258 97.8269043 93.38354492 C97.84173859 94.17136353 97.85657288 94.95918213 97.87185669 95.77087402 C97.79393828 101.72160622 95.91218089 105.65996827 92.22753906 110.30639648 C89.66503906 112.68139648 89.66503906 112.68139648 87.22753906 114.30639648 C86.69819763 114.66359268 86.1688562 115.02078888 85.62347412 115.3888092 C81.97450101 116.78628085 78.31038852 116.60971789 74.45507812 116.61279297 C73.57001587 116.62111649 72.68495361 116.62944 71.77307129 116.63801575 C68.84639079 116.66211499 65.91993328 116.67088858 62.99316406 116.67749023 C60.95538263 116.6864579 58.91760186 116.69557977 56.87982178 116.70484924 C52.60606283 116.72134248 48.33238225 116.72903975 44.05859375 116.73193359 C38.59317015 116.73731215 33.12848748 116.77496931 27.66327286 116.82067776 C23.45267071 116.85048431 19.24224601 116.85765797 15.03154755 116.85865974 C13.01737837 116.86285628 11.00320838 116.87526773 8.98914337 116.89617729 C6.16474173 116.92316089 3.34204466 116.91824511 0.51757812 116.90576172 C-0.30764343 116.92059601 -1.13286499 116.9354303 -1.98309326 116.95071411 C-8.04947005 116.87471194 -12.04068439 115.08798212 -16.77246094 111.30639648 C-21.9788221 105.68900681 -23.07253891 101.46725737 -23.07885742 93.90112305 C-23.08718094 93.05507507 -23.09550446 92.2090271 -23.1040802 91.33734131 C-23.12817325 88.54052117 -23.13695231 85.7439344 -23.14355469 82.94702148 C-23.15252293 80.99892101 -23.16164481 79.05082124 -23.1709137 77.10272217 C-23.18740533 73.01727628 -23.19510389 68.93191234 -23.19799805 64.84643555 C-23.20337599 59.62313382 -23.24103108 54.4006076 -23.28674221 49.17752457 C-23.3165567 45.15221378 -23.32372259 41.12708853 -23.3247242 37.10167694 C-23.32891928 35.17682094 -23.34132492 33.25196402 -23.36224174 31.3272171 C-23.38924186 28.62732297 -23.38430504 25.92921039 -23.37182617 23.22924805 C-23.38666046 22.44142944 -23.40149475 21.65361084 -23.41677856 20.84191895 C-23.33886016 14.89118675 -21.45710277 10.9528247 -17.77246094 6.30639648 C-15.20996094 3.93139648 -15.20996094 3.93139648 -12.77246094 2.30639648 C-12.24311951 1.94920029 -11.71377808 1.59200409 -11.168396 1.22398376 C-7.51942289 -0.17348788 -3.85531039 0.00307508 0 0 Z " fill="#330000" transform="translate(26.7724609375,5.693603515625)"/>
<path d="M0 0 C4.29 0 8.58 0 13 0 C14.76147843 4.99413685 16.52123768 9.98887525 18.27954102 14.98413086 C18.87544575 16.67634648 19.47178555 18.36840898 20.06860352 20.06030273 C23.06483754 28.5550924 26.04936506 37.05359557 28.92578125 45.58984375 C29.32837158 46.78343506 29.73096191 47.97702637 30.14575195 49.20678711 C31 52 31 52 31 54 C27.37 54 23.74 54 20 54 C19.32739649 52.23141309 18.66211605 50.46003984 18 48.6875 C17.62875 47.70136719 17.2575 46.71523437 16.875 45.69921875 C16 43 16 43 16 40 C9.73 40 3.46 40 -3 40 C-3.474375 41.753125 -3.94875 43.50625 -4.4375 45.3125 C-5.22970982 48.24023193 -6.04071468 51.12214405 -7 54 C-10.3 54 -13.6 54 -17 54 C-15.68112839 47.57014809 -13.9411191 41.48501404 -11.77734375 35.29296875 C-11.47180069 34.40515213 -11.16625763 33.51733551 -10.85145569 32.60261536 C-9.88473434 29.79596464 -8.91147813 26.99163975 -7.9375 24.1875 C-6.96109048 21.36513017 -5.98608573 18.54228613 -5.01283264 15.71882629 C-4.40948255 13.96964068 -3.80412797 12.22114486 -3.19651794 10.47343445 C-2.92275833 9.68193497 -2.64899872 8.89043549 -2.36694336 8.07495117 C-2.12648788 7.38261887 -1.88603241 6.69028656 -1.63829041 5.97697449 C-1.00357894 4.01108504 -0.50103305 2.00413219 0 0 Z " fill="#FA9600" transform="translate(49,38)"/>
<path d="M0 0 C3.3 0 6.6 0 10 0 C10 13.2 10 26.4 10 40 C6.7 40 3.4 40 0 40 C0 26.8 0 13.6 0 0 Z " fill="#FE9900" transform="translate(85,52)"/>
<path d="M0 0 C2.81008386 2.81008386 3.49488334 6.16269817 4.625 9.875 C4.85445312 10.59558594 5.08390625 11.31617188 5.3203125 12.05859375 C6.40173891 15.5539184 7 18.31028128 7 22 C2.71 22 -1.58 22 -6 22 C-5.38869449 17.04587829 -4.39455415 12.43416099 -3 7.625 C-2.649375 6.40039062 -2.29875 5.17578125 -1.9375 3.9140625 C-1 1 -1 1 0 0 Z " fill="#3F0900" transform="translate(55,47)"/>
<path d="M0 0 C1.875 1.125 1.875 1.125 3 3 C3.39365568 6.14924548 3.52854531 8.11909116 1.875 10.875 C-0.88090884 12.52854531 -2.85075452 12.39365568 -6 12 C-7.875 10.875 -7.875 10.875 -9 9 C-9.39365568 5.85075452 -9.52854531 3.88090884 -7.875 1.125 C-5.11909116 -0.52854531 -3.14924548 -0.39365568 0 0 Z " fill="#F59200" transform="translate(93,36)"/>
</svg>
