<?xml version="1.0" encoding="UTF-8"?>
<svg version="1.1" xmlns="http://www.w3.org/2000/svg" width="128" height="128">
<path d="M0 0 C3 1 3 1 4.25 3.5 C5.89223092 11.16374431 4.10005164 17.43805935 0 24 C-2.14645401 26.58085541 -4.49979745 28.88337019 -6.9375 31.1875 C-7.84918945 32.07211914 -7.84918945 32.07211914 -8.77929688 32.97460938 C-11.44308675 35.55793958 -14.12623148 38.11992866 -16.81640625 40.67578125 C-20.73128568 44.84278171 -21.45411579 48.03789911 -21.31640625 53.62890625 C-20.43566986 60.22899256 -16.32622143 65.1930873 -12 70 C-12.99 70.495 -12.99 70.495 -14 71 C-20.54390448 66.46577177 -28.01320989 61.14583945 -30 53 C-30.62424116 46.65354825 -29.87498871 42.15446612 -26 37 C-21.45332005 32.37308453 -16.57032487 28.16647677 -11.61328125 23.98828125 C-6.54571421 19.6929149 -2.1563562 15.46906861 0 9 C0.06740865 7.43881572 0.08514456 5.8749748 0.0625 4.3125 C0.05347656 3.50425781 0.04445313 2.69601563 0.03515625 1.86328125 C0.02355469 1.24839844 0.01195313 0.63351563 0 0 Z " fill="#DE8E2E" transform="translate(75,0)"/>
<path d="M0 0 C-2.62647188 1.75098126 -5.28775382 3.38731308 -8 5 C-7.67 5.99 -7.34 6.98 -7 8 C-4.4479352 9.00342044 -4.4479352 9.00342044 -1.375 9.625 C0.16027344 9.98464844 0.16027344 9.98464844 1.7265625 10.3515625 C20.82810886 14.13540104 47.13961785 15.24025477 64 4 C65 5 65 5 65.0625 7.5625 C65.041875 8.366875 65.02125 9.17125 65 10 C58.33774918 14.71232375 50.89978902 15.72529944 43 17 C42.17757812 17.1340625 41.35515625 17.268125 40.5078125 17.40625 C21.83604574 19.79836247 -0.42357397 19.30448874 -18 12 C-20 10 -20 10 -20.125 7.625 C-18.60270101 4.07296903 -16.71212224 3.37645157 -13.265625 1.8515625 C-4.4197731 -1.4732577 -4.4197731 -1.4732577 0 0 Z " fill="#417396" transform="translate(37,104)"/>
<path d="M0 0 C0 0.66 0 1.32 0 2 C-1.79296875 3.296875 -1.79296875 3.296875 -4.1875 4.75 C-8.91003702 7.784323 -12.44677338 10.89354676 -15 16 C-15.54890924 21.21463774 -15.23155527 24.05620544 -12.5 28.5625 C-10.07298171 32.58678674 -9.18769507 35.21642651 -10 40 C-12.08204391 43.86665297 -14.20992219 46.72595332 -18 49 C-18.66 49 -19.32 49 -20 49 C-19.79761719 48.46632812 -19.59523438 47.93265625 -19.38671875 47.3828125 C-17.82792452 42.34938754 -17.80716104 39.49323834 -20.25 34.75 C-20.70890625 33.96109375 -21.1678125 33.1721875 -21.640625 32.359375 C-24.69460539 27.05878834 -25.61124584 23.00662971 -24 17 C-19.81551649 8.95291632 -9.57519682 0 0 0 Z " fill="#DD8D2E" transform="translate(88,26)"/>
<path d="M0 0 C-3.2678206 2.17854707 -6.38058265 3.49760034 -10 5 C-2.49661531 7.01154568 4.50304585 7.30193489 12.25 7.25 C13.38824219 7.25773437 14.52648437 7.26546875 15.69921875 7.2734375 C22.74065427 7.2574524 29.33972406 6.61096015 36.24902344 5.23339844 C39.24533077 4.97918564 40.50959707 5.39189422 43 7 C43 7.66 43 8.32 43 9 C41.14703165 9.48377991 39.29255559 9.96178636 37.4375 10.4375 C36.40496094 10.70433594 35.37242188 10.97117187 34.30859375 11.24609375 C18.36251496 14.87961584 -1.28416981 14.95323831 -17 10 C-19.41796875 8.39453125 -19.41796875 8.39453125 -21 7 C-20.3203125 5.109375 -20.3203125 5.109375 -19 3 C-12.95374548 0.27206025 -6.55028169 -0.37077066 0 0 Z " fill="#417495" transform="translate(50,70)"/>
<path d="M0 0 C0 0.66 0 1.32 0 2 C12.00925858 4.64771055 22.71797811 4.3028791 34.75 2.046875 C38 2 38 2 40.4375 3.953125 C41.2109375 4.96632813 41.2109375 4.96632813 42 6 C40.80375 6.474375 39.6075 6.94875 38.375 7.4375 C37.36566406 7.83775391 37.36566406 7.83775391 36.3359375 8.24609375 C23.45464848 12.40343285 4.65156491 11.83019466 -8 7 C-8.66 6.34 -9.32 5.68 -10 5 C-9.9375 3 -9.9375 3 -9 1 C-5.6868424 -0.8804408 -3.58825658 -1.32898392 0 0 Z " fill="#427495" transform="translate(45,86)"/>
<path d="M0 0 C0 0.99 0 1.98 0 3 C8.59166836 3.84872104 16.36219942 4.00386944 24.94140625 2.86328125 C28.81364345 3.03636976 30.25881109 4.36090379 33 7 C22.88300206 12.4114175 9.80423312 12.43082437 -1.375 10.1875 C-4.55582609 9.14550525 -6.5989805 8.29662735 -9 6 C-7.93344655 3.09121786 -7.32878952 2.16439476 -4.5 0.75 C-2 0 -2 0 0 0 Z " fill="#427495" transform="translate(49,99)"/>
<path d="M0 0 C0.66 0 1.32 0 2 0 C1.14994608 3.71898591 -0.30954079 5.5326015 -3.375 7.625 C-14.58207284 14.11652853 -28.33336659 14.20676284 -40.91308594 14.24023438 C-43.09870297 14.2498839 -45.283355 14.28094195 -47.46875 14.3125 C-56.43287406 14.37802611 -64.3300074 13.49433938 -73 11 C-73 10.67 -73 10.34 -73 10 C-71.17178711 10.02356567 -71.17178711 10.02356567 -69.30664062 10.04760742 C-64.70693796 10.10264518 -60.10726321 10.13661363 -55.50732422 10.16479492 C-53.53103716 10.17971574 -51.55478221 10.20005972 -49.57861328 10.22631836 C-32.96280969 10.4412869 -17.08722556 9.90904731 -2 2 C-1.34 1.34 -0.68 0.68 0 0 Z " fill="#427594" transform="translate(106,114)"/>
<path d="M0 0 C8.9752527 -0.62739631 8.9752527 -0.62739631 13.0625 1.875 C15.33928321 4.37211707 15.93108242 5.39352534 16.3125 8.75 C15.8979326 13.06150098 14.8650388 14.72566994 12 18 C6.70489103 21.86773177 1.40624444 24.60733817 -5 26 C-3.85067883 22.5520365 -3.01470731 22.03232162 -0.125 20 C4.720543 16.83039242 4.720543 16.83039242 7.6171875 12.0625 C8.24347456 7.8945021 8.24347456 7.8945021 6.875 4.0625 C4.60671393 2.7771379 2.5723216 2.34761103 0 2 C0 1.34 0 0.68 0 0 Z " fill="#417297" transform="translate(95,69)"/>
</svg>
