<?xml version="1.0" encoding="UTF-8"?>
<svg version="1.1" xmlns="http://www.w3.org/2000/svg" width="128" height="128">
<path d="M0 0 C8.72997182 6.71951463 14.26279378 14.23485156 19.25 23.9375 C19.59168213 24.59363281 19.93336426 25.24976563 20.28540039 25.92578125 C26.52435091 38.50624038 27.20886747 55.29424476 24 68.875 C23.39928283 70.60762405 22.72384729 72.31509872 22 74 C21.62875 74.89162842 21.62875 74.89162842 21.25 75.80126953 C13.44553326 94.1517026 1.58383911 105.34955964 -16.98046875 112.95703125 C-30.32478387 117.56625782 -47.81644496 118.6637624 -61 113 C-61.59441895 112.7525 -62.18883789 112.505 -62.80126953 112.25 C-80.98742322 104.51540153 -91.65878444 92.85437087 -99.95703125 74.8984375 C-104.77060527 61.52138909 -105.66432909 43.18487413 -100 30 C-99.7525 29.40558105 -99.505 28.81116211 -99.25 28.19873047 C-91.51540153 10.01257678 -79.85437087 -0.65878444 -61.8984375 -8.95703125 C-41.01938704 -16.47011275 -17.95532412 -12.59747631 0 0 Z " fill="#F1F1F0" transform="translate(103,12)"/>
<path d="M0 0 C4.03126521 2.09028566 6.40520971 3.74722589 8 8 C8.74861555 15.89449123 8.44508627 22.82273694 5 30 C6.32 30.66 7.64 31.32 9 32 C8.34 33.32 7.68 34.64 7 36 C6.21625 35.525625 5.4325 35.05125 4.625 34.5625 C1.27814178 33.1198887 -0.47825401 32.80055531 -4 32.625 C-9.28860105 32.22676197 -11.43829148 30.91787938 -15 27 C-17.81077507 21.19429564 -18.14973166 14.79722186 -16.27734375 8.61328125 C-14.82344876 5.42883918 -13.37583237 3.33407321 -10.75 1 C-7.09280519 -0.32988902 -3.80803484 -0.67814319 0 0 Z " fill="#5B88A7" transform="translate(98,62)"/>
<path d="M0 0 C2.31 0 4.62 0 7 0 C9.31 7.26 11.62 14.52 14 22 C16.2619525 15.13499057 16.2619525 15.13499057 18.51733398 8.26782227 C18.79907471 7.41760498 19.08081543 6.5673877 19.37109375 5.69140625 C19.65911865 4.81685791 19.94714355 3.94230957 20.24389648 3.04125977 C21 1 21 1 22 0 C23.99958364 -0.04080783 26.00045254 -0.04254356 28 0 C29.75445809 10.76172061 30.23990235 21.11109903 30 32 C28.35 32 26.7 32 25 32 C24.93941406 30.74703125 24.87882812 29.4940625 24.81640625 28.203125 C24.73197744 26.55207276 24.64733061 24.90103165 24.5625 23.25 C24.52318359 22.425 24.48386719 21.6 24.44335938 20.75 C24.40146484 19.95078125 24.35957031 19.1515625 24.31640625 18.328125 C24.27974854 17.5949707 24.24309082 16.86181641 24.20532227 16.10644531 C23.99885215 13.98822395 23.56867914 12.0480544 23 10 C22.823479 10.55985596 22.64695801 11.11971191 22.46508789 11.6965332 C21.66447676 14.23526819 20.8634925 16.77388531 20.0625 19.3125 C19.78470703 20.19357422 19.50691406 21.07464844 19.22070312 21.98242188 C18.95322266 22.82998047 18.68574219 23.67753906 18.41015625 24.55078125 C18.16402588 25.33106689 17.91789551 26.11135254 17.66430664 26.9152832 C17.12284585 28.61448705 16.56395687 30.30812939 16 32 C14.35 31.67 12.7 31.34 11 31 C8.69 23.41 6.38 15.82 4 8 C3.67 14.6 3.34 21.2 3 28 C1 27 1 27 -0.11328125 24.828125 C-2.5454765 17.07081504 -1.07727037 7.94486901 0 0 Z " fill="#FEAB10" transform="translate(3,62)"/>
<path d="M0 0 C3.4375 1.125 3.4375 1.125 5.12890625 3.3203125 C6.60914445 6.49288273 6.83917852 8.63900652 6.8125 12.125 C6.82023437 13.135625 6.82796875 14.14625 6.8359375 15.1875 C6.34469296 18.80922446 5.04263899 21.51986101 2.4375 24.125 C-1.00371941 24.50735771 -2.87057379 24.62119213 -5.73046875 22.5703125 C-8.25325418 19.20301255 -8.09556 16.8571925 -8.0625 12.6875 C-8.0728125 11.38941406 -8.083125 10.09132813 -8.09375 8.75390625 C-7.29865583 3.32271155 -5.72034399 0.20071382 0 0 Z " fill="#EEEFF0" transform="translate(94.5625,65.875)"/>
<path d="M0 0 C0.99 0.66 1.98 1.32 3 2 C2.67 2.99 2.34 3.98 2 5 C-0.97 5 -3.94 5 -7 5 C-7.33 6.65 -7.66 8.3 -8 10 C-7.31292969 10.47050781 -6.62585938 10.94101563 -5.91796875 11.42578125 C-5.01691406 12.04839844 -4.11585937 12.67101562 -3.1875 13.3125 C-2.29417969 13.92738281 -1.40085937 14.54226562 -0.48046875 15.17578125 C3.56630093 18.1519095 3.56630093 18.1519095 5 20 C5 24.65908647 4.90820111 26.89915017 1.9375 30.5 C-1.87468413 32.44664721 -4.80125185 32.59256526 -9 32 C-12 31 -12 31 -14 30 C-14 29.01 -14 28.02 -14 27 C-10.04 27 -6.08 27 -2 27 C-2 25.02 -2 23.04 -2 21 C-4.09110629 18.87057562 -4.09110629 18.87057562 -6.875 17.3125 C-11.84466019 14.23300971 -11.84466019 14.23300971 -14 11 C-14.5 8.125 -14.5 8.125 -14 5 C-9.59524971 -0.06546284 -6.58567307 -0.75573298 0 0 Z " fill="#5A87A6" transform="translate(74,62)"/>
<path d="M0 0 C1.98 0 3.96 0 6 0 C7.65 5.28 9.3 10.56 11 16 C12.32 10.72 13.64 5.44 15 0 C16.65 0 18.3 0 20 0 C18.76681232 10.41830969 15.47932202 22.2807752 8 30 C5.859375 30.70703125 5.859375 30.70703125 3.75 30.8125 C2.5125 30.874375 1.275 30.93625 0 31 C0 30.01 0 29.02 0 28 C1.2065625 27.5359375 1.2065625 27.5359375 2.4375 27.0625 C4.89080405 26.23664655 4.89080405 26.23664655 6 25 C5.47123428 19.33252514 4.00733821 14.01955663 2.4375 8.5625 C2.08655273 7.32209961 2.08655273 7.32209961 1.72851562 6.05664062 C1.15636985 4.03661574 0.57874796 2.01814324 0 0 Z " fill="#FEAA0D" transform="translate(36,71)"/>
<path d="M0 0 C6.625 0.75 6.625 0.75 10 3 C11.55403983 3.427844 13.11800518 3.82038112 14.6875 4.1875 C22.68305791 6.48695242 28.93105456 12.56837058 33.00146484 19.77246094 C34.36871738 22.41069003 35.69664591 25.06597962 37 27.73632812 C38.9852925 31.64337831 38.9852925 31.64337831 42.25 34.45703125 C42.8275 34.63621094 43.405 34.81539062 44 35 C43.67 35.99 43.34 36.98 43 38 C36.76282951 35.09532493 34.60133944 32.42485247 31.9375 26.1875 C27.45283526 16.53621571 23.01628884 9.95264339 12.73046875 6.1640625 C11.22995964 5.66140439 9.72377734 5.17516633 8.2109375 4.7109375 C5.7551826 3.9212778 3.3856675 2.97937929 1 2 C1.39832031 2.79664063 1.79664062 3.59328125 2.20703125 4.4140625 C3.8046875 7.609375 5.40234375 10.8046875 7 14 C7.556875 14.9384375 8.11375 15.876875 8.6875 16.84375 C10.40770706 20.9804384 10.33369284 24.45172948 10.1875 28.875 C10.17396484 29.65875 10.16042969 30.4425 10.14648438 31.25 C10.11141789 33.16696782 10.05762072 35.08357751 10 37 C10.66 37 11.32 37 12 37 C12.12375 35.865625 12.2475 34.73125 12.375 33.5625 C12.58125 32.386875 12.7875 31.21125 13 30 C13.66 29.67 14.32 29.34 15 29 C15.40992187 29.75925781 15.81984375 30.51851562 16.2421875 31.30078125 C16.78101562 32.29464844 17.31984375 33.28851563 17.875 34.3125 C18.40867187 35.29863281 18.94234375 36.28476562 19.4921875 37.30078125 C21.00722126 40.09586458 21.00722126 40.09586458 23 43 C19.64379729 41.61122646 17.92701272 40.08322035 16 37 C16 36.34 16 35.68 16 35 C15.34 35 14.68 35 14 35 C13.67 36.32 13.34 37.64 13 39 C11.125 38.75 11.125 38.75 9 38 C6.56749212 34.52498875 6.97194989 31.61514168 7.25 27.5 C7.41946583 18.49006695 3.88147165 12.32220748 -1 5 C-0.625 2.3125 -0.625 2.3125 0 0 Z " fill="#658FAC" transform="translate(82,10)"/>
<path d="M0 0 C1.65 0 3.3 0 5 0 C5 9.24 5 18.48 5 28 C7.31 28 9.62 28 12 28 C11.34 29.32 10.68 30.64 10 32 C6.7 32 3.4 32 0 32 C0 21.44 0 10.88 0 0 Z " fill="#5C89A7" transform="translate(111,62)"/>
<path d="M0 0 C5.68630318 4.18167302 8.71134081 8.40593854 11.6875 14.75 C12.40960012 16.27088345 13.14229366 17.78679344 13.88671875 19.296875 C14.19826904 19.96041992 14.50981934 20.62396484 14.83081055 21.30761719 C16.27017737 23.39107737 17.68699896 24.04831692 20 25 C19.67 25.99 19.34 26.98 19 28 C12.73317495 25.08959271 10.51299239 22.32558699 7.8125 16.0625 C5.60252553 11.15194573 3.40418334 7.21937581 0 3 C0 2.01 0 1.02 0 0 Z " fill="#5D8AA8" transform="translate(106,20)"/>
<path d="M0 0 C0.33 0 0.66 0 1 0 C1.33 3.63 1.66 7.26 2 11 C2.66 11 3.32 11 4 11 C4.185625 9.2984375 4.185625 9.2984375 4.375 7.5625 C4.58125 6.386875 4.7875 5.21125 5 4 C5.66 3.67 6.32 3.34 7 3 C7.40992187 3.75925781 7.81984375 4.51851562 8.2421875 5.30078125 C8.78101562 6.29464844 9.31984375 7.28851563 9.875 8.3125 C10.40867187 9.29863281 10.94234375 10.28476562 11.4921875 11.30078125 C13.00722126 14.09586458 13.00722126 14.09586458 15 17 C11.64379729 15.61122646 9.92701272 14.08322035 8 11 C8 10.34 8 9.68 8 9 C7.34 9 6.68 9 6 9 C5.67 10.32 5.34 11.64 5 13 C3.125 12.875 3.125 12.875 1 12 C-1.11077902 7.67792868 -1.10166308 4.62698494 0 0 Z " fill="#7096B1" transform="translate(90,36)"/>
<path d="M0 0 C3.36143418 1.12047806 4.57528834 2.49707183 7 5 C7.66 5.33 8.32 5.66 9 6 C8.67 6.99 8.34 7.98 8 9 C3.15544041 6.62176166 3.15544041 6.62176166 1 5 C0.0625 2.25 0.0625 2.25 0 0 Z " fill="#6991AD" transform="translate(117,39)"/>
<path d="M0 0 C1.32 0 2.64 0 4 0 C4 1.98 4 3.96 4 6 C2.35 4.35 0.7 2.7 -1 1 C-0.67 0.67 -0.34 0.34 0 0 Z " fill="#7096B1" transform="translate(124,53)"/>
</svg>
