<?xml version="1.0" encoding="UTF-8"?>
<svg version="1.1" xmlns="http://www.w3.org/2000/svg" width="128" height="128">
<path d="M0 0 C4.2107012 1.86548119 8.07666969 4.2223449 12 6.625 C13.71703765 7.64927337 15.43408723 8.6735276 17.15196228 9.69639587 C18.92226099 10.75332067 20.68794667 11.81768356 22.45361328 12.88232422 C25.91917231 14.96299378 29.42067431 16.97291748 32.93359375 18.97265625 C34.02736328 19.59769043 35.12113281 20.22272461 36.24804688 20.86669922 C38.33662643 22.0590313 40.42768814 23.24702842 42.52148438 24.43017578 C43.46185547 24.97270996 44.40222656 25.51524414 45.37109375 26.07421875 C46.19536865 26.54432373 47.01964355 27.01442871 47.86889648 27.4987793 C50.25516132 29.17974418 51.47948907 30.50559262 53 33 C53.39440918 35.8011322 53.39440918 35.8011322 53.41992188 39.06616211 C53.44378967 40.90343117 53.44378967 40.90343117 53.46813965 42.77781677 C53.46834106 44.09766068 53.46854248 45.41750458 53.46875 46.77734375 C53.47585405 48.14970714 53.4835534 49.52206757 53.49182129 50.89442444 C53.50525682 53.76848612 53.5068392 56.64227315 53.50097656 59.51635742 C53.49508082 63.19316471 53.52566813 66.86865134 53.56609344 70.54520321 C53.59198782 73.37890173 53.59484642 76.21228294 53.59120178 79.04608345 C53.59371097 81.05854161 53.61839713 83.0709327 53.64343262 85.08323669 C53.57448725 94.18167469 53.57448725 94.18167469 50.76879883 98.17822266 C49.85509521 98.77940918 48.9413916 99.3805957 48 100 C47.21133545 100.53810303 46.4226709 101.07620605 45.61010742 101.63061523 C44.37031128 102.3374646 44.37031128 102.3374646 43.10546875 103.05859375 C42.16123047 103.60306152 41.21699219 104.1475293 40.24414062 104.70849609 C39.23544922 105.27906738 38.22675781 105.84963867 37.1875 106.4375 C35.03465123 107.66708495 32.882323 108.89758167 30.73046875 110.12890625 C29.07023682 111.07660889 29.07023682 111.07660889 27.37646484 112.04345703 C24.01017518 113.99410384 20.6837551 115.9998326 17.36328125 118.02734375 C16.29634033 118.67195557 15.22939941 119.31656738 14.13012695 119.98071289 C12.08550463 121.21807539 10.04845759 122.46806703 8.02026367 123.73217773 C-0.85087265 129.04813144 -0.85087265 129.04813144 -5.93457031 128.58691406 C-10.67482209 127.23992053 -14.72700681 124.52695507 -18.875 121.9375 C-20.99001106 120.65610779 -23.10593114 119.37621504 -25.22265625 118.09765625 C-26.3223877 117.42750488 -27.42211914 116.75735352 -28.55517578 116.06689453 C-32.08168677 113.93503465 -35.65734508 111.89594454 -39.24609375 109.87109375 C-39.83936462 109.53514694 -40.4326355 109.19920013 -41.04388428 108.85307312 C-43.92809534 107.22014652 -46.81553959 105.5937535 -49.70849609 103.97631836 C-50.7495752 103.38343018 -51.7906543 102.79054199 -52.86328125 102.1796875 C-53.78407471 101.66132324 -54.70486816 101.14295898 -55.65356445 100.60888672 C-58.17720515 98.87849527 -59.41916091 97.61096436 -61 95 C-61.39440918 92.1988678 -61.39440918 92.1988678 -61.41992188 88.93383789 C-61.43583374 87.70899185 -61.45174561 86.48414581 -61.46813965 85.22218323 C-61.46834106 83.90233932 -61.46854248 82.58249542 -61.46875 81.22265625 C-61.47585405 79.85029286 -61.4835534 78.47793243 -61.49182129 77.10557556 C-61.50525682 74.23151388 -61.5068392 71.35772685 -61.50097656 68.48364258 C-61.49508082 64.80683529 -61.52566813 61.13134866 -61.56609344 57.45479679 C-61.59198782 54.62109827 -61.59484642 51.78771706 -61.59120178 48.95391655 C-61.59371097 46.94145839 -61.61839713 44.9290673 -61.64343262 42.91676331 C-61.57432552 33.79698267 -61.57432552 33.79698267 -58.66870117 29.76489258 C-55.42754666 27.62141934 -52.19632219 25.5338123 -48.8125 23.625 C-48.0999707 23.21435303 -47.38744141 22.80370605 -46.65332031 22.38061523 C-45.03658248 21.44979177 -43.4177896 20.52253194 -41.79736328 19.59814453 C-38.61847444 17.78203296 -35.44730306 15.95272527 -32.27734375 14.12109375 C-26.7498998 10.92761105 -21.21857781 7.74093889 -15.68457031 4.55883789 C-13.89393196 3.51907563 -12.12311688 2.44440698 -10.37402344 1.33618164 C-6.82869631 -0.6592498 -3.88753137 -0.84898252 0 0 Z " fill="#52A144" transform="translate(68,0)"/>
<path d="M0 0 C2.2129192 2.81987048 3.99620392 5.66964778 5.6796875 8.83203125 C6.18935059 9.78303711 6.69901367 10.73404297 7.22412109 11.71386719 C8.04130615 13.24769043 8.04130615 13.24769043 8.875 14.8125 C13.27818265 23.01612949 17.75874699 31.16442017 22.375 39.25 C27.60791452 48.42832797 32.62156948 57.71291553 37.57711792 67.04251099 C42.15946184 75.66286311 46.88501635 84.17635922 51.85205078 92.58105469 C55 97.91282555 55 97.91282555 55 99 C50.89723098 99.29569096 48.67769852 98.57792025 45.17578125 96.46484375 C43.77428833 95.63218994 43.77428833 95.63218994 42.34448242 94.78271484 C41.34392822 94.17379395 40.34337402 93.56487305 39.3125 92.9375 C37.16999244 91.65634455 35.02673504 90.37644242 32.8828125 89.09765625 C31.20493652 88.0924292 31.20493652 88.0924292 29.49316406 87.06689453 C25.9378174 84.95099852 22.34450577 82.90570034 18.7421875 80.87109375 C17.55164838 80.1960944 16.361137 79.52104611 15.1706543 78.84594727 C12.88182653 77.54863001 10.58856151 76.26045735 8.29223633 74.97631836 C7.25091553 74.38343018 6.20959473 73.79054199 5.13671875 73.1796875 C4.21592529 72.66132324 3.29513184 72.14295898 2.34643555 71.60888672 C-0.17793178 69.87799704 -1.42078958 68.61316705 -3 66 C-3.38095093 63.19213867 -3.38095093 63.19213867 -3.38818359 59.91796875 C-3.39764008 58.68989502 -3.40709656 57.46182129 -3.4168396 56.1965332 C-3.41146971 54.86018551 -3.40531671 53.52384077 -3.3984375 52.1875 C-3.40045932 50.81274257 -3.40337167 49.43798619 -3.40713501 48.06323242 C-3.41155332 45.18495451 -3.40514355 42.30695629 -3.39111328 39.42871094 C-3.37402123 35.74313594 -3.38386512 32.05821637 -3.40183067 28.37266541 C-3.41268209 25.53473999 -3.40921604 22.69696944 -3.4014473 19.85903931 C-3.39944902 18.50029421 -3.40189149 17.14153496 -3.40888596 15.7828064 C-3.41652181 13.88255083 -3.40281573 11.98224583 -3.38818359 10.08203125 C-3.38579681 9.00155518 -3.38341003 7.9210791 -3.38095093 6.80786133 C-2.95668042 3.68070596 -2.10036554 2.30550702 0 0 Z " fill="#3E873E" transform="translate(10,29)"/>
<path d="M0 0 C2.36325815 2.99457562 4.22296582 6.07316 6.03125 9.4296875 C6.87623047 10.99396484 6.87623047 10.99396484 7.73828125 12.58984375 C8.61033203 14.21599609 8.61033203 14.21599609 9.5 15.875 C10.37205078 17.48955078 10.37205078 17.48955078 11.26171875 19.13671875 C12.85102821 22.08621525 14.43814818 25.03586794 16 28 C16.91543579 29.48367065 16.91543579 29.48367065 17.84936523 30.99731445 C19 34 19 34 18.15063477 36.83325195 C17.58658936 37.79191162 17.02254395 38.75057129 16.44140625 39.73828125 C15.82716797 40.80626953 15.21292969 41.87425781 14.58007812 42.97460938 C13.91427734 44.07611328 13.24847656 45.17761719 12.5625 46.3125 C11.93150391 47.40240234 11.30050781 48.49230469 10.65039062 49.61523438 C6.98478799 55.89319235 3.11766839 62.00935439 -1 68 C-3.69617798 65.30382202 -3.25864487 63.91573086 -3.2746582 60.14501953 C-3.28419022 58.91679474 -3.29372223 57.68856995 -3.30354309 56.42312622 C-3.30328164 55.07635469 -3.30234447 53.72958315 -3.30078125 52.3828125 C-3.30466739 51.00519684 -3.30900189 49.62758238 -3.31376648 48.24996948 C-3.32123498 45.35980347 -3.32093342 42.46975959 -3.31567383 39.57958984 C-3.30988548 35.87829504 -3.32679113 32.17750167 -3.3500185 28.47628975 C-3.36476333 25.62980227 -3.36562643 22.78343525 -3.36250877 19.93691635 C-3.36302185 18.57257979 -3.36825715 17.20823646 -3.37832069 15.84393692 C-3.3906775 13.93392005 -3.38195148 12.02380207 -3.37231445 10.11376953 C-3.37294388 9.02726105 -3.3735733 7.94075256 -3.3742218 6.82131958 C-2.95776679 3.68159692 -2.10987588 2.31155664 0 0 Z " fill="#3E9736" transform="translate(10,29)"/>
</svg>
