<?xml version="1.0" encoding="UTF-8"?>
<svg version="1.1" xmlns="http://www.w3.org/2000/svg" width="128" height="128">
<path d="M0 0 C0.88506226 -0.0049649 1.77012451 -0.00992981 2.68200684 -0.01504517 C5.60865051 -0.02964387 8.53523996 -0.0364654 11.46191406 -0.04199219 C13.49969483 -0.04774604 15.5374756 -0.05350374 17.57525635 -0.05926514 C21.84900158 -0.06976896 26.12272805 -0.07561551 30.39648438 -0.07910156 C35.86170066 -0.08458139 41.32666721 -0.10860122 46.79180527 -0.13707352 C51.00238764 -0.15573661 55.21291034 -0.16090748 59.42353058 -0.16243744 C61.43767917 -0.16545679 63.4518269 -0.17346099 65.46593475 -0.18662262 C68.28998064 -0.20375792 71.11342261 -0.20178448 73.9375 -0.1953125 C75.17533234 -0.20913467 75.17533234 -0.20913467 76.43817139 -0.22323608 C83.04734866 -0.17600571 88.19426998 1.32706313 93.91503906 4.78613281 C99.88959889 10.92216723 101.9769558 17.23970467 101.89038086 25.65307617 C101.90074875 26.55516312 101.91111664 27.45725006 101.92179871 28.38667297 C101.94870312 31.34191575 101.93924217 34.29565704 101.92675781 37.25097656 C101.93267355 39.32166452 101.93992313 41.39234906 101.94844055 43.46302795 C101.96029213 47.79283533 101.95366093 52.12212772 101.93432617 56.4519043 C101.91144914 61.98113076 101.938222 67.50881939 101.97938824 73.03789425 C102.00505051 77.31126717 102.00236328 81.58427627 101.99149513 85.85769844 C101.99001538 87.89531411 101.99761765 89.93295863 102.01474571 91.97050285 C102.161142 112.75827974 102.161142 112.75827974 95.22753906 120.16113281 C88.77116845 125.54144165 82.34149552 126.46056123 74.24389648 126.45166016 C72.91827446 126.46173599 72.91827446 126.46173599 71.56587219 126.47201538 C68.65485962 126.49095639 65.74407811 126.49491767 62.83300781 126.49707031 C60.80048021 126.50350115 58.76795353 126.51022972 56.73542786 126.51724243 C52.47781225 126.52920561 48.22027771 126.53292426 43.96264648 126.53173828 C38.52214202 126.5315352 33.08216053 126.55883096 27.6417799 126.5932827 C23.44401183 126.6155826 19.24636897 126.61957486 15.04854774 126.61851883 C13.04359448 126.62087037 11.03863752 126.62966857 9.0337429 126.64518356 C6.22191726 126.66490521 3.41121111 126.65898126 0.59936523 126.64697266 C-0.21911896 126.65821167 -1.03760315 126.66945068 -1.88088989 126.68103027 C-9.10294792 126.60313695 -14.99169013 124.44754437 -20.58496094 119.84863281 C-25.80302973 113.43786258 -27.3698161 109.02181934 -27.32177734 100.89624023 C-27.33199921 99.99444534 -27.34222107 99.09265045 -27.35275269 98.16352844 C-27.38043529 95.19761216 -27.37863947 92.23263129 -27.37402344 89.26660156 C-27.38180435 87.19305581 -27.39047513 85.11951323 -27.3999939 83.04597473 C-27.41489542 78.70429138 -27.41435342 74.36293334 -27.40380859 70.02124023 C-27.39223189 64.47630536 -27.42605841 58.93270939 -27.47249794 53.38799572 C-27.50206544 49.10606694 -27.50370345 44.82445702 -27.49747849 40.54244423 C-27.49850061 38.49923365 -27.50889506 36.45600421 -27.52910233 34.4128933 C-27.71228644 13.29892213 -27.71228644 13.29892213 -20.77246094 6.16113281 C-14.05290363 0.81504463 -8.4784064 0.0113734 0 0 Z " fill="#001834" transform="translate(26.7724609375,0.8388671875)"/>
<path d="M0 0 C23 0 23 0 33 4 C38.0218617 9.0218617 40.13058227 12.11758172 40.25 19.3125 C40.1693535 24.88443994 39.38506471 28.44237247 35.48828125 32.62109375 C28.15021353 39.49744035 20.63341229 39.21648117 11 39 C11 44.94 11 50.88 11 57 C7.37 57 3.74 57 0 57 C0 38.19 0 19.38 0 0 Z " fill="#00A6FB" transform="translate(29,33)"/>
<path d="M0 0 C0.763125 -0.00322266 1.52625 -0.00644531 2.3125 -0.00976562 C6.17050768 0.02746076 8.09924794 0.12866529 11.375 2.3125 C11.66796875 4.6953125 11.66796875 4.6953125 11.5625 7.4375 C11.53542969 8.34757812 11.50835937 9.25765625 11.48046875 10.1953125 C11.44566406 10.89398438 11.41085938 11.59265625 11.375 12.3125 C10.405625 11.9825 9.43625 11.6525 8.4375 11.3125 C4.07733163 10.04376248 -0.12054566 10.12864472 -4.625 10.3125 C-4.625 11.6325 -4.625 12.9525 -4.625 14.3125 C-3.66078125 14.74820313 -2.6965625 15.18390625 -1.703125 15.6328125 C-0.42666991 16.23349725 0.8493491 16.8351093 2.125 17.4375 C2.75921875 17.72109375 3.3934375 18.0046875 4.046875 18.296875 C8.59294742 20.47520137 11.02219763 22.68413372 13.375 27.3125 C13.95056955 31.69402317 12.90211872 35.37990534 10.75 39.1875 C4.75312598 44.55312413 -0.65279303 44.64133148 -8.44140625 44.61328125 C-11.76351126 44.29941366 -14.5118694 43.48753125 -17.625 42.3125 C-17.625 38.6825 -17.625 35.0525 -17.625 31.3125 C-16.696875 31.6425 -15.76875 31.9725 -14.8125 32.3125 C-9.81595127 33.77239695 -4.7816642 33.48034802 0.375 33.3125 C0.3200071 31.39095491 0.3200071 31.39095491 -0.625 29.3125 C-3.25165857 27.64939093 -3.25165857 27.64939093 -6.4375 26.3125 C-10.59292123 24.4498995 -13.67633865 22.83164828 -16.625 19.3125 C-17.83143566 15.69319302 -17.94768559 13.12018995 -17.625 9.3125 C-13.43584599 1.24449969 -8.49073748 -0.18111641 0 0 Z " fill="#00A4F8" transform="translate(92.625,46.6875)"/>
<path d="M0 0 C11.88452656 -0.4295612 11.88452656 -0.4295612 16 3 C17.56941198 4.56941198 17.2449847 6.14134994 17.3125 8.3125 C17.27550053 11.63716709 17.2065068 12.70499029 15.25 15.5 C10.25693216 18.82871189 6.17465905 18 0 18 C0 12.06 0 6.12 0 0 Z " fill="#001D3C" transform="translate(40,44)"/>
</svg>
