<?xml version="1.0" encoding="UTF-8"?>
<svg version="1.1" xmlns="http://www.w3.org/2000/svg" width="128" height="128">
<path d="M0 0 C0.89162842 0.37125 0.89162842 0.37125 1.80126953 0.75 C19.98742322 8.48459847 30.65878444 20.14562913 38.95703125 38.1015625 C43.77060527 51.47861091 44.66432909 69.81512587 39 83 C38.62875 83.89162842 38.62875 83.89162842 38.25 84.80126953 C31.96100871 99.58840589 23.28456536 110.20045204 9 118 C8.32453125 118.39703125 7.6490625 118.7940625 6.953125 119.203125 C-6.86072586 126.8521168 -25.47546472 127.35708811 -40.5625 123.4375 C-58.92305887 117.13494821 -71.56849308 106.34638502 -80.4609375 89.1796875 C-87.11543474 75.3706441 -89.25685365 56.40286956 -84.15625 41.69140625 C-83.7746875 40.80324219 -83.393125 39.91507813 -83 39 C-82.7525 38.40558105 -82.505 37.81116211 -82.25 37.19873047 C-74.51540153 19.01257678 -62.85437087 8.34121556 -44.8984375 0.04296875 C-31.52138909 -4.77060527 -13.18487413 -5.66432909 0 0 Z " fill="#3875AB" transform="translate(86,3)"/>
<path d="M0 0 C12.65895954 -0.62427746 12.65895954 -0.62427746 17.625 1.6875 C25.78606452 9.63379967 28.23801054 18.1462452 28.5625 29.3125 C28.74599831 43.35012037 21.42789581 54.97469298 12 65 C11.42121094 65.62003906 10.84242187 66.24007812 10.24609375 66.87890625 C-2.72313172 79.39995114 -19.25953127 83.46961919 -36.76342773 83.43115234 C-46.1948817 83.2062279 -54.54463163 81.30541139 -63 77 C-63.09924823 72.12538525 -63.17164581 67.25136503 -63.21972656 62.37597656 C-63.23978009 60.71929675 -63.26703029 59.06268718 -63.30175781 57.40625 C-63.35055512 55.01805242 -63.37303064 52.63079453 -63.390625 50.2421875 C-63.41127014 49.50757294 -63.43191528 48.77295837 -63.45318604 48.01608276 C-63.4554201 42.8378956 -62.35796647 39.92192712 -59 36 C-54.63326581 32.28031638 -50.28365452 32.60407191 -44.82421875 32.6640625 C-43.00845998 32.65154752 -41.19270476 32.63851028 -39.37695312 32.625 C-36.53315588 32.62107718 -33.68971076 32.6249886 -30.84594727 32.63964844 C-28.08818024 32.64826571 -25.3318587 32.62645759 -22.57421875 32.6015625 C-21.73436935 32.61490631 -20.89451996 32.62825012 -20.02922058 32.64199829 C-13.90322982 32.56611919 -9.72253686 30.94612074 -5 27 C-0.52797976 21.75587607 -0.3557773 16.24089383 -0.25 9.5625 C-0.20552734 8.17901367 -0.20552734 8.17901367 -0.16015625 6.76757812 C-0.09002327 4.51163399 -0.0370525 2.25668881 0 0 Z " fill="#F2CA02" transform="translate(98,45)"/>
<path d="M0 0 C0.89162842 0.37125 0.89162842 0.37125 1.80126953 0.75 C19.98742322 8.48459847 30.65878444 20.14562913 38.95703125 38.1015625 C41.73527821 45.82238363 42.29261332 53.08435467 42.1875 61.25 C42.1865332 62.70019531 42.1865332 62.70019531 42.18554688 64.1796875 C42.15808214 68.61066494 41.97048765 72.66112154 41 77 C40.67 77 40.34 77 40 77 C39.94392578 75.65808594 39.94392578 75.65808594 39.88671875 74.2890625 C39.26737416 62.89797968 38.13315364 52.97175486 29.625 44.6875 C23.98225958 42.06070704 18.15689487 42.16868205 12 42 C12.02618408 42.56396484 12.05236816 43.12792969 12.0793457 43.70898438 C12.18435201 46.30569725 12.24864373 48.9019622 12.3125 51.5 C12.35439453 52.386875 12.39628906 53.27375 12.43945312 54.1875 C12.54080499 59.7010414 11.79219464 63.4437208 8.86401367 68.13085938 C3.87265042 73.13595132 -0.91573301 75.55676676 -8.00357056 75.61634827 C-8.8402829 75.5998674 -9.67699524 75.58338654 -10.5390625 75.56640625 C-11.42355072 75.57204086 -12.30803894 75.57767548 -13.21932983 75.58348083 C-16.02177128 75.59982751 -18.82261546 75.58446907 -21.625 75.5625 C-24.43437244 75.54586365 -27.24270432 75.53685567 -30.05209351 75.55223083 C-31.79284008 75.56145727 -33.53380876 75.55252589 -35.27432251 75.52259827 C-40.64408119 75.54679311 -43.80017519 76.33230338 -48 80 C-50.67084396 83.48572686 -50.34656277 87.602889 -50.4140625 91.828125 C-50.43342865 92.57713074 -50.4527948 93.32613647 -50.4727478 94.09783936 C-50.53235716 96.48177836 -50.57885354 98.86576614 -50.625 101.25 C-50.66319701 102.86981231 -50.70224975 104.48960468 -50.7421875 106.109375 C-50.83804313 110.07275406 -50.92214246 114.03622819 -51 118 C-55.72108015 116.53482311 -58.81908942 114.87696027 -62.625 111.6875 C-63.54539062 110.92824219 -64.46578125 110.16898437 -65.4140625 109.38671875 C-68 107 -68 107 -72 102 C-66.72 102 -61.44 102 -56 102 C-56.06960937 100.06447266 -56.06960937 100.06447266 -56.140625 98.08984375 C-56.17816434 96.37241912 -56.21456217 94.65496928 -56.25 92.9375 C-56.28351562 92.08994141 -56.31703125 91.24238281 -56.3515625 90.36914062 C-56.4569673 83.5441797 -55.1145808 79.39633994 -50.40234375 74.2578125 C-44.96768774 70.05501185 -40.83682403 69.84698412 -34.16796875 69.7890625 C-32.38215235 69.76099023 -30.59634518 69.73232574 -28.81054688 69.703125 C-25.9995961 69.66190655 -23.18881696 69.62501236 -20.37768555 69.59863281 C-17.66158602 69.5709443 -14.94626577 69.52507091 -12.23046875 69.4765625 C-10.97861031 69.4716832 -10.97861031 69.4716832 -9.70146179 69.46670532 C-4.7745714 69.36347805 -1.19198004 68.86260528 3 66 C6.63973987 61.78520919 6.48206508 57.46586151 6.50390625 52.15625 C6.51389145 51.30953735 6.52387665 50.46282471 6.53416443 49.5904541 C6.54931075 47.8053067 6.5563913 46.02007487 6.5559082 44.23486328 C6.56248067 41.50801872 6.61702199 38.78479625 6.67382812 36.05859375 C6.68262921 34.32032491 6.68858408 32.58203883 6.69140625 30.84375 C6.7129628 30.03216431 6.73451935 29.22057861 6.75672913 28.38439941 C6.73124993 24.05878584 6.73124993 24.05878584 4.69235229 20.38006592 C2.05155278 18.13353341 -0.72089683 16.37036025 -4 15.25 C-4.61875 15.02828125 -5.2375 14.8065625 -5.875 14.578125 C-17.29930061 11.47004322 -31.77785235 11.22078768 -42.80859375 15.63671875 C-46.28728072 17.80082169 -49.46453425 19.81077196 -50.48852539 23.99731445 C-50.71477631 26.28535587 -50.79423506 28.51265828 -50.8125 30.8125 C-50.874375 33.514375 -50.93625 36.21625 -51 39 C-41.43 39 -31.86 39 -22 39 C-22 40.65 -22 42.3 -22 44 C-22.5902446 44.00586624 -23.1804892 44.01173248 -23.78862 44.01777649 C-29.93711264 44.08175668 -36.0850841 44.1661884 -42.2331543 44.26245117 C-44.52702967 44.29568634 -46.82098654 44.32372264 -49.11499023 44.34643555 C-52.41425273 44.38000674 -55.7127693 44.43232535 -59.01171875 44.48828125 C-60.54792122 44.49786613 -60.54792122 44.49786613 -62.11515808 44.50764465 C-68.65553178 44.64241325 -72.3763262 45.3763262 -77.125 50.125 C-81.55395337 56.91606184 -82.47141867 64.10453339 -82.6875 72.0625 C-82.72166016 72.92810547 -82.75582031 73.79371094 -82.79101562 74.68554688 C-82.87240114 76.78994387 -82.93789769 78.8949457 -83 81 C-88.41806659 71.24748013 -87.53056226 54.70145254 -85 44.125 C-84.39928283 42.39237595 -83.72384729 40.68490128 -83 39 C-82.7525 38.40558105 -82.505 37.81116211 -82.25 37.19873047 C-74.51540153 19.01257678 -62.85437087 8.34121556 -44.8984375 0.04296875 C-31.52138909 -4.77060527 -13.18487413 -5.66432909 0 0 Z " fill="#274E6F" transform="translate(86,3)"/>
<path d="M0 0 C0.66 0.33 1.32 0.66 2 1 C-4.26776409 8.51859771 -10.24316519 14.34346171 -19 19 C-19.33 19 -19.66 19 -20 19 C-20 14.71 -20 10.42 -20 6 C-29.9 6 -39.8 6 -50 6 C-50 4.68 -50 3.36 -50 2 C-49.41784225 1.98969254 -48.83568451 1.97938507 -48.23588562 1.96876526 C-42.18521866 1.86071434 -36.13470105 1.74611508 -30.08422852 1.62768555 C-27.82514567 1.5843322 -25.56602997 1.54265742 -23.30688477 1.50268555 C-20.06256196 1.44499287 -16.8184046 1.38129531 -13.57421875 1.31640625 C-12.05534309 1.29133751 -12.05534309 1.29133751 -10.50578308 1.26576233 C-9.56503433 1.24581711 -8.62428558 1.22587189 -7.6550293 1.20532227 C-6.82674118 1.18977798 -5.99845306 1.1742337 -5.14506531 1.15821838 C-2.81446753 1.07459277 -2.81446753 1.07459277 0 0 Z " fill="#264D6E" transform="translate(114,102)"/>
<path d="M0 0 C1.875 1.1875 1.875 1.1875 3 3 C2.75546876 6.34192692 2.39456443 7.60543557 0 10 C-3 10.3125 -3 10.3125 -6 10 C-8 7 -8 7 -7.75 3.875 C-7.37875 2.451875 -7.37875 2.451875 -7 1 C-4.45132831 -0.27433584 -2.82594567 -0.27570202 0 0 Z " fill="#E8EBEE" transform="translate(50,24)"/>
<path d="M0 0 C2.4375 0.75 2.4375 0.75 4.4375 2.75 C4.75 5.25 4.75 5.25 4.4375 7.75 C0.99642734 10.04404844 -0.53089809 10.01293056 -4.5625 9.75 C-5.5625 8.75 -5.5625 8.75 -5.8125 5.3125 C-5.73 4.136875 -5.6475 2.96125 -5.5625 1.75 C-2.5625 -0.25 -2.5625 -0.25 0 0 Z " fill="#F0EEE1" transform="translate(81.5625,116.25)"/>
</svg>
